/* XPM */
static char *alarm_clock[] = {
/* columns rows colors chars-per-pixel */
"32 32 246 2 ",
"   c #665E64",
".  c #426372",
"X  c #DE4B35",
"o  c #DF4B35",
"O  c #DB4C37",
"+  c #DF4C35",
"@  c #DD4C36",
"#  c #DE4C36",
"$  c #D34D39",
"%  c #D44D39",
"&  c #E24B33",
"*  c #E24B34",
"=  c #E34B34",
"-  c #8E5855",
";  c #8F5855",
":  c #8C5856",
">  c #865958",
",  c #915854",
"<  c #AC5349",
"1  c #BC5143",
"2  c #066E8B",
"3  c #066E8C",
"4  c #066F8D",
"5  c #08718F",
"6  c #097291",
"7  c #0C7696",
"8  c #0E7899",
"9  c #0E789A",
"0  c #187492",
"q  c #1E7592",
"w  c #107B9D",
"e  c #117C9F",
"r  c #2D6C82",
"t  c #336B80",
"y  c #137EA2",
"u  c #137FA3",
"i  c #2A8198",
"p  c #2D8399",
"a  c #1480A5",
"s  c #1481A6",
"d  c #1582A7",
"f  c #1586AD",
"g  c #1988AE",
"h  c #1A88AF",
"j  c #1789B1",
"k  c #1A8CB4",
"l  c #1B8CB5",
"z  c #1E8EB7",
"x  c #1A8FB8",
"c  c #1F8FB8",
"v  c #1D90BB",
"b  c #1F90BB",
"n  c #1D90BC",
"m  c #1E92BD",
"M  c #1F93BE",
"N  c #2090B9",
"B  c #2091BA",
"V  c #2191BA",
"C  c #2091BB",
"Z  c #2091BC",
"A  c #2092BC",
"S  c #2192BC",
"D  c #2192BD",
"F  c #2292BC",
"G  c #2392BC",
"H  c #2393BC",
"J  c #2592BC",
"K  c #2493BC",
"L  c #2593BC",
"P  c #2493BD",
"I  c #2693BC",
"U  c #2793BC",
"Y  c #2794BD",
"T  c #2894BD",
"R  c #2994BD",
"E  c #2A94BD",
"W  c #2D96BD",
"Q  c #2D96BE",
"!  c #2F96BE",
"~  c #3291B0",
"^  c #3197BE",
"/  c #3297BE",
"(  c #3497BE",
")  c #3896B9",
"_  c #3398BF",
"`  c #3498BE",
"'  c #3598BE",
"]  c #3698BF",
"[  c #3699BF",
"{  c #4591A4",
"}  c #4C93A4",
"|  c #3F9BC0",
" . c #389CC0",
".. c #409CC0",
"X. c #419CC0",
"o. c #429CC0",
"O. c #459DC0",
"+. c #4DA0C1",
"@. c #50A1C2",
"#. c #57A3C3",
"$. c #59A4C3",
"%. c #5BA5C3",
"&. c #5DA5C3",
"*. c #5EA6C4",
"=. c #5DACC6",
"-. c #5EADC6",
";. c #60A7C4",
":. c #61A7C4",
">. c #66A9C5",
",. c #67A9C5",
"<. c #69AAC5",
"1. c #6AAAC5",
"2. c #6BABC5",
"3. c #6DABC6",
"4. c #74AFC2",
"5. c #73AEC7",
"6. c #74AEC7",
"7. c #74AFC7",
"8. c #7EB2C8",
"9. c #7FB2C8",
"0. c #D2B6AC",
"q. c #EFB4A0",
"w. c #F0B3A0",
"e. c #F0BAA6",
"r. c #F2C0AC",
"t. c #F2C1AE",
"y. c #F3C2AE",
"u. c #EFC3B1",
"i. c #EFC4B2",
"p. c #F3C4B0",
"a. c #F2C4B1",
"s. c #F4C5B1",
"d. c #F4CCBA",
"f. c #80B3C8",
"g. c #82B4C9",
"h. c #83B4C9",
"j. c #85B5C9",
"k. c #89B7CA",
"l. c #8BB8CA",
"z. c #97BDCC",
"x. c #98BDCC",
"c. c #98BECC",
"v. c #99BECC",
"b. c #9BBFCD",
"n. c #9FC0C0",
"m. c #9DC0CE",
"M. c #9FC1CE",
"N. c #9FC8CE",
"B. c #A1C1CE",
"V. c #A0C2CF",
"C. c #A9C5CF",
"Z. c #AAC6CF",
"A. c #ABC6CF",
"S. c #BED1CB",
"D. c #A2C4D0",
"F. c #A5C5D0",
"G. c #ADC7D0",
"H. c #AACDD1",
"J. c #A8CDD2",
"K. c #ADCFD3",
"L. c #BCCED2",
"P. c #BDCFD3",
"I. c #BDD0D3",
"U. c #CBCDC9",
"Y. c #C5D4CD",
"T. c #CED0CA",
"R. c #D0D1CB",
"E. c #D6D5CD",
"W. c #C0D1D3",
"Q. c #C2D2D4",
"!. c #C3D2D4",
"~. c #C7D4D5",
"^. c #C8D5D5",
"/. c #CAD5D4",
"(. c #CDD8D6",
"). c #CFD9D6",
"_. c #D0D9D7",
"`. c #D1DAD7",
"'. c #DDDBD1",
"]. c #DFDDD3",
"[. c #DDDCD4",
"{. c #D8DED8",
"}. c #D9DED8",
"|. c #DADED8",
" X c #E3D9CF",
".X c #E3DACF",
"XX c #F4D8C6",
"oX c #F8D9C6",
"OX c #F2DBCB",
"+X c #DAE0D4",
"@X c #DDE1D5",
"#X c #DBE0D9",
"$X c #DFE1D9",
"%X c #D9E4DB",
"&X c #E3E0D4",
"*X c #E6E1D5",
"=X c #E2E4D7",
"-X c #E4E4D8",
";X c #E8E7D9",
":X c #EBE6D8",
">X c #EDE7D8",
",X c #E9E7DC",
"<X c #EAE8DC",
"1X c #EEEADD",
"2X c #EFEBDD",
"3X c #F3E2D2",
"4X c #F7E3D0",
"5X c #F4E2D2",
"6X c #F8E3D1",
"7X c #F8E4D1",
"8X c #F8E4D2",
"9X c #F9E9D7",
"0X c #F0EBDD",
"qX c #F3EBDC",
"wX c #F1ECDD",
"eX c #F4ECDC",
"rX c #F5EDDD",
"tX c #F4EEDE",
"yX c #F5EEDE",
"uX c #F6EFDE",
"iX c #F7EFDE",
"pX c #F6EFDF",
"aX c #FBECDA",
"sX c #F9EEDC",
"dX c #FAEFDD",
"fX c #F8EFDE",
"gX c #F9F0DE",
"hX c #F8F0DF",
"jX c #FAF1DF",
"kX c #FBF1DF",
"lX c #FBF2DF",
"zX c #FCF2DF",
"xX c #FAF2E0",
"cX c #FBF2E0",
"vX c #FAF3E1",
"bX c #FBF3E1",
"nX c #FCF2E0",
"mX c #FDF2E0",
"MX c #FCF3E0",
"NX c #FDF3E0",
"BX c #FCF3E1",
"VX c #FEF3E0",
"CX c #FFF3E0",
"ZX c #FAF4E2",
"AX c #FCF4E1",
"SX c None",
/* pixels */
"SXSXSXSXSXSXSXSXSXSXSXSXSXSXSXSXSXSXSXSXSXSXSXSXSXSXSXSXSXSXSXSX",
"SXSXSXSXSXSXSXSXSXSXSXSXSXSXSXSXSXSXSXSXSXSXSXSXSXSXSXSXSXSXSXSX",
"SXSXSXSXSXSXSXSXSXSXSXSXSXSXSXSXSXSXSXSXSXSXSXSXSXSXSXSXSXSXSXSX",
"SXSXSXSXSXSXSXSXSXSXSXSXSXSXSXSXSXSXSXSXSXSXSXSXSXSXSXSXSXSXSXSX",
"SXSXSXSXSXSXSX@ @ @ SXSXSXSXSX& = * SXSXSXSXSX@ @ @ SXSXSXSXSXSX",
"SXSXSXSXSX@ @ @ @ @ @ @ SXSX. : - ,   SXSXSX@ @ @ @ @ @ SXSXSXSX",
"SXSXSXSXSX@ @ @ @ @ @ SXSX9 w a s u y 9 SXSXo @ @ @ @ @ @ SXSXSX",
"SXSXSXSX@ @ @ @ @ % SXSXZ B I W  .W U B B SXSX$ O @ @ @ @ SXSXSX",
"SXSXSXSX@ @ @ * < t x Z / $.9.c.D.m.k.>.[ I M q > O O @ @ SXSXSX",
"SXSXSXSX@ @ @ 1 r f I $.m.(.<XeXi.3X1X{.G.2./ k 0 , * @ @ SXSXSX",
"SXSXSXSX@ @ o SXj R <.L.2XlXkXkXr.7XkX>X&X_.g.` l SX* @ @ SXSXSX",
"SXSXSXSXSX@ SXSXI ;.W.iXkXiXkXkXZXkXkXT.*XzX{.9.W Z SXO @ SXSXSX",
"SXSXSXSXSXSXSXZ ..C.tXvXkXkXkXiXkXkX&XT.kXkXiX^.*.Z SXSXSXSXSXSX",
"SXSXSXSXSXSXSXL 5.[.aXvXkXkXkXkXkXtXU.:XkXvXkX2Xc./ Z SXSXSXSXSX",
"SXSXSXSXSXSXZ ` V.OXw.a.4XvXvXkXiX'.E.kXkXiXkXkXQ.+.Z SXSXSXSXSX",
"SXSXSXSXSXSXZ O.I.vX9Xd.q.e.XXH.-.4.-XkXkXkXkXAX#X>.P SXSXSXSXSX",
"SXSXSXSXSXSXZ @./.a.7XZXkXoX0.) n P K.zXkXiXkXp..X7.Z SXSXSXSXSX",
"SXSXSXSXSXSXZ @./.p.7XvXkXZX%X .n v N.AXkXkXsXt..X7.I SXSXSXSXSX",
"SXSXSXSXSXSXZ O.I.ZXlXkXkXkXiXJ.-.~ { @XkXkXkXZX#X>.B SXSXSXSXSX",
"SXSXSXSXSXSXZ ` B.tXkXiXkXkXkXZXiXY.i } =XkXkXkXW.+.Z SXSXSXSXSX",
"SXSXSXSXSXSXSXI 7.@XzXkXkXiXkXiXkXAXS.p n.zXkXtXc./ Z SXSXSXSXSX",
"SXSXSXSXSXSXSXZ X.Z.tXzXkXkXkXkXkXkXzX+X:XzXkX^.*.P SXSXSXSXSXSX",
"SXSXSXSXSXSXSXSXL :.Q.tXkXkXkXkXvXvXkXvXvXzX|.f.W B SXSXSXSXSXSX",
"SXSXSXSXSXSXSXSXZ R 3.L.2XkXkXsXt.7XkXkXtX_.j.` Z SXSXSXSXSXSXSX",
"SXSXSXSXSXSXSXSXSXl R $.b._.<XtXu.4XtX|.G.3.( c SXSXSXSXSXSXSXSX",
"SXSXSXSXSXSXSXSXSX6 d B ` *.g.b.F.m.l.<...L g 7 SXSXSXSXSXSXSXSX",
"SXSXSXSXSXSXSXSXSX4 4 y Z Z R ( ( ( R Z Z g 5 2 4 SXSXSXSXSXSXSX",
"SXSXSXSXSXSXSXSXSX4 4 SXSXSXSXZ n n SXSXSXSXSX4 4 SXSXSXSXSXSXSX",
"SXSXSXSXSXSXSXSXSXSXSXSXSXSXSXSXSXSXSXSXSXSXSXSXSXSXSXSXSXSXSXSX",
"SXSXSXSXSXSXSXSXSXSXSXSXSXSXSXSXSXSXSXSXSXSXSXSXSXSXSXSXSXSXSXSX",
"SXSXSXSXSXSXSXSXSXSXSXSXSXSXSXSXSXSXSXSXSXSXSXSXSXSXSXSXSXSXSXSX",
"SXSXSXSXSXSXSXSXSXSXSXSXSXSXSXSXSXSXSXSXSXSXSXSXSXSXSXSXSXSXSXSX"
};
